<svg width="25" height="24" viewBox="0 0 25 24" fill="none" xmlns="http://www.w3.org/2000/svg">
<g id="navbar / home">
<path id="Vector" d="M20.1585 9.70153L13.1585 3.57653C12.7815 3.24663 12.2185 3.24663 11.8415 3.57652L4.84151 9.70153C4.6245 9.89141 4.50002 10.1657 4.50002 10.4541V19.0003C4.50002 19.5526 4.94773 20.0003 5.50002 20.0003H9.50002C10.0523 20.0003 10.5 19.5526 10.5 19.0003V15.0003C10.5 14.448 10.9477 14.0003 11.5 14.0003H13.5C14.0523 14.0003 14.5 14.448 14.5 15.0003V19.0003C14.5 19.5526 14.9477 20.0003 15.5 20.0003H19.5C20.0523 20.0003 20.5 19.5526 20.5 19.0003V10.4541C20.5 10.1657 20.3755 9.89141 20.1585 9.70153Z" stroke="#A9AABC" stroke-width="2" stroke-linecap="round" stroke-linejoin="round"/>
</g>
</svg>
