<svg width="15" height="15" viewBox="0 0 15 15" fill="none" xmlns="http://www.w3.org/2000/svg">
<path id="Vector" d="M5.47424 7.50004C5.47424 6.24252 6.49309 5.22283 7.75025 5.22283C9.00741 5.22283 10.0268 6.24252 10.0268 7.50004C10.0268 8.75756 9.00741 9.77725 7.75025 9.77725C6.49309 9.77725 5.47424 8.75756 5.47424 7.50004ZM4.24358 7.50004C4.24358 9.43734 5.81351 11.0077 7.75025 11.0077C9.68698 11.0077 11.2569 9.43734 11.2569 7.50004C11.2569 5.56274 9.68698 3.99235 7.75025 3.99235C5.81351 3.99235 4.24358 5.56274 4.24358 7.50004ZM10.5762 3.85327C10.5762 4.0154 10.6242 4.17391 10.7142 4.30875C10.8042 4.44359 10.9321 4.54871 11.0818 4.61081C11.2315 4.67291 11.3963 4.68921 11.5553 4.65765C11.7143 4.62608 11.8603 4.54807 11.975 4.43347C12.0896 4.31887 12.1677 4.17284 12.1994 4.01384C12.2311 3.85484 12.2149 3.69002 12.153 3.54021C12.091 3.3904 11.986 3.26233 11.8513 3.1722C11.7166 3.08207 11.5581 3.03393 11.3961 3.03387H11.3957C11.1785 3.03397 10.9701 3.12032 10.8165 3.27396C10.6628 3.4276 10.5764 3.63596 10.5762 3.85327ZM4.99129 13.0604C4.32548 13.0301 3.96359 12.9191 3.7231 12.8254C3.40426 12.7012 3.17677 12.5534 2.93759 12.3144C2.6984 12.0755 2.55035 11.8482 2.42677 11.5292C2.33302 11.2888 2.22211 10.9267 2.19185 10.2607C2.15874 9.54062 2.15213 9.32432 2.15213 7.50009C2.15213 5.67586 2.15929 5.46017 2.19185 4.73951C2.22217 4.07351 2.33389 3.71212 2.42677 3.47095C2.5509 3.15202 2.69873 2.92446 2.93759 2.68521C3.17644 2.44596 3.40371 2.29786 3.7231 2.17425C3.96348 2.08047 4.32548 1.96953 4.99129 1.93926C5.71113 1.90614 5.92737 1.89953 7.75025 1.89953C9.57313 1.89953 9.78958 1.90668 10.51 1.93926C11.1758 1.96959 11.5371 2.08134 11.7782 2.17425C12.0971 2.29786 12.3245 2.44629 12.5637 2.68521C12.8029 2.92414 12.9504 3.15202 13.0745 3.47095C13.1683 3.71141 13.2792 4.07351 13.3095 4.73951C13.3426 5.46017 13.3492 5.67586 13.3492 7.50009C13.3492 9.32432 13.3426 9.54002 13.3095 10.2607C13.2791 10.9267 13.1677 11.2887 13.0745 11.5292C12.9504 11.8482 12.8026 12.0757 12.5637 12.3144C12.3249 12.5531 12.0971 12.7012 11.7782 12.8254C11.5378 12.9192 11.1758 13.0301 10.51 13.0604C9.79018 13.0935 9.57395 13.1001 7.75025 13.1001C5.92655 13.1001 5.71091 13.0935 4.99129 13.0604ZM4.93474 0.710314C4.20775 0.743432 3.71097 0.85874 3.27713 1.02761C2.82783 1.20199 2.44748 1.43594 2.06739 1.81553C1.68731 2.19512 1.45403 2.57619 1.2797 3.02562C1.11088 3.45986 0.995607 3.95651 0.9625 4.68372C0.928846 5.41207 0.921143 5.64493 0.921143 7.50004C0.921143 9.35515 0.928846 9.588 0.9625 10.3164C0.995607 11.0436 1.11088 11.5402 1.2797 11.9745C1.45403 12.4236 1.68737 12.8051 2.06739 13.1845C2.44742 13.564 2.82783 13.7976 3.27713 13.9725C3.71179 14.1413 4.20775 14.2566 4.93474 14.2898C5.66327 14.3229 5.89568 14.3311 7.75025 14.3311C9.60482 14.3311 9.83761 14.3234 10.5658 14.2898C11.2928 14.2566 11.7893 14.1413 12.2234 13.9725C12.6724 13.7976 13.053 13.5641 13.4331 13.1845C13.8132 12.805 14.046 12.4236 14.2208 11.9745C14.3896 11.5402 14.5054 11.0436 14.538 10.3164C14.5711 9.58746 14.5788 9.35515 14.5788 7.50004C14.5788 5.64493 14.5711 5.41207 14.538 4.68372C14.5049 3.95645 14.3896 3.45958 14.2208 3.02562C14.046 2.57646 13.8126 2.19572 13.4331 1.81553C13.0536 1.43534 12.6724 1.20199 12.2239 1.02761C11.7893 0.85874 11.2928 0.742885 10.5663 0.710314C9.83815 0.677197 9.60536 0.668945 7.75079 0.668945C5.89623 0.668945 5.66327 0.676651 4.93474 0.710314Z" fill="#1D3068"/>
</svg>
