<svg width="113" height="32" viewBox="0 0 113 32" fill="none" xmlns="http://www.w3.org/2000/svg">
<g id="platina horizontal">
<g clip-path="url(#clip0_211_871)">
<g id="symbol">
<path d="M15.3086 0.217843C14.8083 -0.0726145 14.1917 -0.0726142 13.6914 0.217843L1.30823 7.40632C0.808085 7.69666 0.5 8.23311 0.5 8.81364V23.1863C0.5 23.767 0.808191 24.3035 1.30847 24.5938L5.54333 27.0512C5.97449 27.3014 6.51342 26.9886 6.51342 26.4882V12.3029C6.51342 11.7225 6.82143 11.1861 7.32147 10.8957L13.6914 7.19678C14.1918 6.90626 14.8083 6.90618 15.3087 7.19657L21.6831 10.8958C22.1834 11.1861 22.4915 11.7226 22.4915 12.3032V19.697C22.4915 20.2776 22.1834 20.8141 21.6831 21.1044L15.3088 24.8035C14.8084 25.0939 14.1917 25.0938 13.6914 24.8032L11.1235 23.3115C10.6923 23.061 10.1531 23.3737 10.1531 23.8743V28.7888C10.1531 29.3692 10.461 29.9055 10.9609 30.1959L13.6912 31.7819C14.1917 32.0726 14.8084 32.0727 15.3089 31.7822L27.6918 24.5938C28.1919 24.3035 28.5 23.7671 28.5 23.1865V8.81364C28.5 8.23311 28.1919 7.69666 27.6918 7.40632L15.3086 0.217843Z" fill="#1D3068"/>
<path d="M18.205 18.898C18.6053 18.6658 18.8518 18.2365 18.8518 17.772V14.2232C18.8518 13.7587 18.6053 13.3294 18.205 13.0972L15.147 11.3228C14.7467 11.0905 14.2534 11.0906 13.8531 11.3231L10.7994 13.0971C10.3994 13.3294 10.1531 13.7585 10.1531 14.2227V17.7724C10.1531 18.2367 10.3994 18.6658 10.7994 18.8981L13.8531 20.6721C14.2534 20.9046 14.7467 20.9047 15.147 20.6724L18.205 18.898Z" fill="#1D3068"/>
</g>
<g id="logotype">
<path d="M50.5409 4.55985H53.7521V22.8843H50.5409V4.55985Z" fill="#1D3068"/>
<path d="M68.7606 22.8843H65.5495V21.1283C65.1417 21.756 64.598 22.2481 63.9184 22.6044C63.2388 22.9437 62.3893 23.1134 61.3699 23.1134C60.4354 23.1134 59.5689 22.9437 58.7703 22.6044C57.9888 22.2481 57.3092 21.7645 56.7315 21.1537C56.1538 20.5259 55.7036 19.7963 55.3808 18.9649C55.0749 18.1166 54.922 17.2088 54.922 16.2417C54.922 15.2576 55.0749 14.3499 55.3808 13.5185C55.7036 12.6701 56.1538 11.9406 56.7315 11.3297C57.3092 10.702 57.9888 10.2184 58.7703 9.87905C59.5689 9.52274 60.4439 9.34458 61.3953 9.34458C62.4148 9.34458 63.2558 9.52274 63.9184 9.87905C64.598 10.2184 65.1417 10.702 65.5495 11.3297V9.59909H68.7606V22.8843ZM65.5495 15.6309C65.4305 14.7486 65.0483 14.0105 64.4026 13.4167C63.757 12.8059 62.933 12.5005 61.9305 12.5005C61.3699 12.5005 60.8601 12.6023 60.4014 12.8059C59.9427 13.0095 59.5519 13.281 59.2291 13.6203C58.9232 13.9596 58.6854 14.3584 58.5155 14.8165C58.3456 15.2746 58.2606 15.7582 58.2606 16.2672C58.2606 16.7592 58.3456 17.2258 58.5155 17.667C58.6854 18.1081 58.9232 18.4983 59.2291 18.8377C59.5519 19.177 59.9427 19.4485 60.4014 19.6521C60.8601 19.8557 61.3699 19.9575 61.9305 19.9575C62.4233 19.9575 62.882 19.8812 63.3067 19.7285C63.7315 19.5588 64.0968 19.3382 64.4026 19.0667C64.7254 18.7783 64.9803 18.4474 65.1672 18.0742C65.3711 17.6839 65.4985 17.2767 65.5495 16.8525V15.6309Z" fill="#1D3068"/>
<path d="M75.3785 5.67968V9.59909H78.6916V12.2714H75.3785V18.2778C75.3785 19.0243 75.5484 19.5249 75.8882 19.7794C76.228 20.0339 76.6952 20.1611 77.2899 20.1611C77.5108 20.1611 77.7317 20.1526 77.9525 20.1357C78.1904 20.1017 78.4368 20.0678 78.6916 20.0339V22.9607C77.9101 23.0625 77.188 23.1134 76.5253 23.1134C75.8457 23.1134 75.2341 23.0455 74.6904 22.9098C74.1467 22.7741 73.688 22.545 73.3142 22.2226C72.9404 21.8833 72.6516 21.4506 72.4477 20.9246C72.2608 20.3817 72.1673 19.72 72.1673 18.9395V12.2714H69.8991V9.59909H72.1673V5.67968H75.3785Z" fill="#1D3068"/>
<path d="M79.6119 5.90874C79.6119 5.38276 79.7988 4.93313 80.1726 4.55985C80.5633 4.18658 81.0306 3.99994 81.5743 3.99994C82.1179 3.99994 82.5767 4.18658 82.9505 4.55985C83.3412 4.93313 83.5366 5.38276 83.5366 5.90874C83.5366 6.45169 83.3412 6.9098 82.9505 7.28308C82.5767 7.63939 82.1179 7.81754 81.5743 7.81754C81.0306 7.81754 80.5633 7.63939 80.1726 7.28308C79.7988 6.9098 79.6119 6.45169 79.6119 5.90874ZM79.9687 9.59909H83.1798V22.8843H79.9687V9.59909Z" fill="#1D3068"/>
<path d="M112.5 22.8844H109.289V21.1283C108.881 21.756 108.337 22.2481 107.658 22.6044C106.978 22.9437 106.128 23.1134 105.109 23.1134C104.175 23.1134 103.308 22.9437 102.51 22.6044C101.728 22.2481 101.048 21.7645 100.471 21.1537C99.893 20.5259 99.4428 19.7963 99.12 18.9649C98.8142 18.1166 98.6612 17.2088 98.6612 16.2417C98.6612 15.2576 98.8142 14.3499 99.12 13.5185C99.4428 12.6701 99.893 11.9406 100.471 11.3297C101.048 10.702 101.728 10.2184 102.51 9.87905C103.308 9.52274 104.183 9.34459 105.135 9.34459C106.154 9.34459 106.995 9.52274 107.658 9.87905C108.337 10.2184 108.881 10.702 109.289 11.3297V9.59909H112.5V22.8844ZM109.289 15.6309C109.17 14.7486 108.787 14.0105 108.142 13.4167C107.496 12.8059 106.672 12.5005 105.67 12.5005C105.109 12.5005 104.599 12.6023 104.141 12.8059C103.682 13.0095 103.291 13.281 102.968 13.6203C102.662 13.9596 102.425 14.3584 102.255 14.8165C102.085 15.2746 102 15.7582 102 16.2672C102 16.7592 102.085 17.2258 102.255 17.667C102.425 18.1081 102.662 18.4984 102.968 18.8377C103.291 19.177 103.682 19.4485 104.141 19.6521C104.599 19.8557 105.109 19.9575 105.67 19.9575C106.162 19.9575 106.621 19.8812 107.046 19.7285C107.471 19.5588 107.836 19.3382 108.142 19.0667C108.465 18.7783 108.72 18.4474 108.906 18.0742C109.11 17.6839 109.238 17.2767 109.289 16.8525V15.6309Z" fill="#1D3068"/>
<path d="M85.1212 9.59909H88.3324V11.7115C88.8251 10.9819 89.4538 10.405 90.2183 9.98085C90.9829 9.55668 91.8579 9.34459 92.8433 9.34459C93.5569 9.34459 94.2026 9.46336 94.7802 9.7009C95.3579 9.93844 95.8421 10.2778 96.2329 10.7189C96.6407 11.1431 96.9465 11.6521 97.1504 12.246C97.3713 12.8398 97.4817 13.493 97.4817 14.2057V22.8844H94.2705V15.2491C94.2705 14.3669 94.0242 13.6882 93.5314 13.2131C93.0387 12.738 92.4101 12.5005 91.6455 12.5005C91.1698 12.5005 90.728 12.6108 90.3203 12.8313C89.9295 13.0349 89.5897 13.3064 89.3008 13.6458C89.012 13.9851 88.7826 14.3838 88.6127 14.8419C88.4428 15.2831 88.3494 15.7327 88.3324 16.1908V22.8844H85.1212V9.59909Z" fill="#1D3068"/>
<path d="M35.54 27.9999V9.59909H38.7511V11.3297C39.1759 10.702 39.7196 10.2184 40.3822 9.87905C41.0618 9.52274 41.9113 9.34459 42.9308 9.34459C43.8822 9.34459 44.7487 9.52274 45.5303 9.87905C46.3118 10.2184 46.9915 10.702 47.5691 11.3297C48.1468 11.9406 48.5885 12.6701 48.8944 13.5185C49.2172 14.3499 49.3786 15.2576 49.3786 16.2417C49.3786 17.2088 49.2172 18.1166 48.8944 18.9649C48.5885 19.7963 48.1468 20.5259 47.5691 21.1537C46.9915 21.7645 46.3118 22.2481 45.5303 22.6044C44.7487 22.9437 43.8822 23.1134 42.9308 23.1134C41.9113 23.1134 41.0618 22.9437 40.3822 22.6044C39.7196 22.2481 39.1759 21.756 38.7511 21.1283V27.9999H35.54ZM38.7511 15.6309V16.8525C38.8021 17.2767 38.9211 17.6839 39.1079 18.0742C39.3118 18.4474 39.5667 18.7783 39.8725 19.0667C40.1953 19.3382 40.5691 19.5588 40.9939 19.7285C41.4186 19.8812 41.8774 19.9575 42.3701 19.9575C42.9308 19.9575 43.4405 19.8557 43.8992 19.6521C44.358 19.4485 44.7402 19.177 45.0461 18.8377C45.3689 18.4984 45.6152 18.1081 45.7851 17.667C45.955 17.2258 46.04 16.7592 46.04 16.2672C46.04 15.7582 45.955 15.2746 45.7851 14.8165C45.6152 14.3584 45.3689 13.9596 45.0461 13.6203C44.7402 13.281 44.358 13.0095 43.8992 12.8059C43.4405 12.6023 42.9308 12.5005 42.3701 12.5005C41.3677 12.5005 40.5436 12.8059 39.898 13.4167C39.2524 14.0105 38.8701 14.7486 38.7511 15.6309Z" fill="#1D3068"/>
</g>
</g>
</g>
<defs>
<clipPath id="clip0_211_871">
<rect x="0.5" width="112" height="32" fill="white"/>
</clipPath>
</defs>
</svg>
