<svg width="35" height="36" viewBox="0 0 35 36" fill="none" xmlns="http://www.w3.org/2000/svg">
<g id="Group">
<path id="Vector" d="M17.4998 26.3332C22.1022 26.3332 25.8332 22.6022 25.8332 17.9999C25.8332 13.3975 22.1022 9.66653 17.4998 9.66653C12.8975 9.66653 9.1665 13.3975 9.1665 17.9999C9.1665 22.6022 12.8975 26.3332 17.4998 26.3332Z" fill="url(#paint0_linear_297_813)"/>
<path id="Vector_2" d="M25.3316 2.3382L23.3732 7.06654C22.7349 8.60654 20.4249 7.64987 21.0632 6.10987L23.0216 1.38154C23.6599 -0.158462 25.9699 0.798204 25.3316 2.3382ZM13.9216 29.8832L11.9632 34.6115C11.3249 36.1515 9.0149 35.1949 9.65324 33.6549L11.6116 28.9265C12.2499 27.3865 14.5599 28.3432 13.9216 29.8832V29.8832ZM34.1082 12.4682L29.3799 14.4265C27.8399 15.0649 26.8832 12.7549 28.4232 12.1165L33.1516 10.1582C34.6916 9.51987 35.6482 11.8299 34.1082 12.4682V12.4682ZM6.56324 23.8782L1.83491 25.8365C0.294905 26.4749 -0.661762 24.1649 0.878238 23.5265L5.60657 21.5682C7.14657 20.9299 8.10324 23.2399 6.56324 23.8782V23.8782ZM33.1516 25.8382L28.4232 23.8799C26.8832 23.2415 27.8399 20.9315 29.3799 21.5699L34.1082 23.5282C35.6482 24.1665 34.6916 26.4765 33.1516 25.8382ZM5.60657 14.4282L0.878238 12.4699C-0.661762 11.8315 0.294905 9.52154 1.83491 10.1599L6.56324 12.1182C8.10324 12.7565 7.14657 15.0665 5.60657 14.4282V14.4282ZM11.9616 1.37987L13.9199 6.1082C14.5582 7.6482 12.2482 8.60487 11.6099 7.06487L9.65157 2.33654C9.01324 0.796538 11.3232 -0.160129 11.9616 1.37987V1.37987ZM23.3716 28.9249L25.3299 33.6532C25.9682 35.1932 23.6582 36.1499 23.0199 34.6099L21.0616 29.8815C20.4232 28.3415 22.7332 27.3849 23.3716 28.9249V28.9249Z" fill="#FFB300"/>
</g>
<defs>
<linearGradient id="paint0_linear_297_813" x1="17.4998" y1="9.66653" x2="17.4998" y2="26.111" gradientUnits="userSpaceOnUse">
<stop stop-color="#FFC227"/>
<stop offset="1" stop-color="#FFB300"/>
</linearGradient>
</defs>
</svg>
