<svg width="14" height="11" viewBox="0 0 14 11" fill="none" xmlns="http://www.w3.org/2000/svg">
<path id="Vector" d="M1.56323 4.79059C1.56323 4.79059 7.29647 2.37585 9.28485 1.52556C10.0471 1.18548 12.632 0.0971028 12.632 0.0971028C12.632 0.0971028 13.8251 -0.37902 13.7256 0.777325C13.6925 1.25349 13.4274 2.91999 13.1623 4.72258C12.7646 7.2734 12.3337 10.0623 12.3337 10.0623C12.3337 10.0623 12.2675 10.8445 11.7041 10.9806C11.1407 11.1166 10.2128 10.5044 10.0471 10.3684C9.91449 10.2664 7.56157 8.73585 6.69994 7.98761C6.46795 7.78355 6.20284 7.37545 6.73305 6.89928C7.92612 5.77692 9.35112 4.38249 10.2128 3.49821C10.6105 3.09006 11.0081 2.13777 9.35112 3.29411C6.9982 4.96066 4.6784 6.52516 4.6784 6.52516C4.6784 6.52516 4.14814 6.86524 3.15395 6.55914C2.15972 6.25309 0.999818 5.84494 0.999818 5.84494C0.999818 5.84494 0.204503 5.33478 1.56323 4.79059Z" fill="#1D3068"/>
</svg>
