<svg width="13" height="15" viewBox="0 0 13 15" fill="none" xmlns="http://www.w3.org/2000/svg">
<path id="Vector" d="M11.1164 3.66074C11.0259 3.61393 10.9377 3.56262 10.8523 3.507C10.6039 3.34277 10.3761 3.14925 10.1739 2.93062C9.66795 2.35173 9.47899 1.76444 9.40939 1.35326H9.41218C9.35404 1.01196 9.37808 0.791138 9.38171 0.791138H7.07732V9.70183C7.07732 9.82147 7.07732 9.93971 7.07229 10.0566C7.07229 10.0711 7.07089 10.0845 7.07005 10.1002C7.07005 10.1066 7.07005 10.1133 7.06865 10.12C7.06865 10.1217 7.06865 10.1234 7.06865 10.125C7.04436 10.4447 6.94187 10.7536 6.77021 11.0244C6.59854 11.2952 6.36295 11.5197 6.08417 11.6781C5.79361 11.8434 5.46499 11.9301 5.13071 11.9296C4.05706 11.9296 3.1869 11.0542 3.1869 9.97297C3.1869 8.89177 4.05706 8.0163 5.13071 8.0163C5.33395 8.01611 5.53593 8.04809 5.72917 8.11106L5.73197 5.76472C5.14535 5.68895 4.54939 5.73557 3.98169 5.90165C3.41399 6.06772 2.88687 6.34965 2.43358 6.72964C2.0364 7.07475 1.70248 7.48651 1.44686 7.94642C1.34959 8.11413 0.982574 8.78807 0.938129 9.88185C0.910177 10.5027 1.09662 11.1459 1.18551 11.4117V11.4173C1.24141 11.5738 1.45804 12.108 1.81108 12.5583C2.09576 12.9195 2.4321 13.2368 2.80926 13.5V13.4944L2.81485 13.5C3.93043 14.2581 5.16733 14.2083 5.16733 14.2083C5.38144 14.1997 6.0987 14.2083 6.91324 13.8223C7.81666 13.3944 8.33098 12.7568 8.33098 12.7568C8.65956 12.3758 8.92083 11.9416 9.10359 11.4729C9.31211 10.9248 9.38171 10.2673 9.38171 10.0046V5.27723C9.40967 5.294 9.78199 5.54027 9.78199 5.54027C9.78199 5.54027 10.3184 5.88408 11.1553 6.10798C11.7557 6.26731 12.5647 6.30085 12.5647 6.30085V4.01322C12.2812 4.04397 11.7057 3.95452 11.1164 3.66074Z" fill="#1D3068"/>
</svg>
