<svg width="15" height="13" viewBox="0 0 15 13" fill="none" xmlns="http://www.w3.org/2000/svg">
<path id="Vector" d="M14.1555 2.13259C13.7048 2.32676 13.2309 2.46196 12.7456 2.53487C12.9725 2.49594 13.3063 2.08718 13.4392 1.92173C13.6411 1.67216 13.795 1.38726 13.893 1.08149C13.893 1.05878 13.9157 1.02634 13.893 1.01012C13.8815 1.00387 13.8687 1.0006 13.8557 1.0006C13.8427 1.0006 13.8299 1.00387 13.8184 1.01012C13.2915 1.29574 12.7306 1.51374 12.1492 1.65895C12.1289 1.66515 12.1073 1.6657 12.0868 1.66056C12.0662 1.65541 12.0474 1.64476 12.0325 1.62975C11.9872 1.57581 11.9385 1.52488 11.8866 1.47728C11.6495 1.26461 11.3804 1.09055 11.0893 0.961459C10.6963 0.800088 10.2718 0.730201 9.84786 0.757078C9.43652 0.783079 9.03492 0.893506 8.66804 1.08149C8.30675 1.27968 7.98923 1.54893 7.73455 1.87306C7.46665 2.20667 7.27324 2.59384 7.16732 3.00851C7.07999 3.40295 7.07008 3.81062 7.13815 4.20885C7.13815 4.27697 7.13815 4.28671 7.07981 4.27697C4.76878 3.93634 2.87263 3.11557 1.3233 1.354C1.25523 1.27614 1.21958 1.27614 1.16448 1.354C0.490293 2.37915 0.817662 4.00122 1.66039 4.80252C1.77384 4.90958 1.89052 5.01339 2.01369 5.11072C1.62731 5.08326 1.25036 4.97846 0.905176 4.80252C0.840351 4.76035 0.804697 4.78306 0.801456 4.86092C0.792267 4.96886 0.792267 5.07739 0.801456 5.18533C0.869087 5.70264 1.07278 6.19269 1.39169 6.60537C1.71061 7.01805 2.13331 7.33855 2.61657 7.53409C2.73438 7.5846 2.85713 7.62265 2.98284 7.64764C2.62514 7.71812 2.25827 7.72908 1.89701 7.68008C1.81922 7.66386 1.79005 7.70603 1.81922 7.78065C2.29568 9.0783 3.32965 9.47409 4.08811 9.69469C4.19183 9.71091 4.29555 9.71091 4.41224 9.73687C4.41224 9.73687 4.41224 9.73687 4.39279 9.75633C4.16914 10.1651 3.26483 10.4408 2.84994 10.5836C2.09267 10.8558 1.28528 10.9599 0.48381 10.8885C0.357401 10.8691 0.328229 10.8723 0.295816 10.8885C0.263404 10.9048 0.295816 10.9404 0.33147 10.9729C0.493534 11.0799 0.655598 11.174 0.824144 11.2649C1.32591 11.5388 1.85637 11.7564 2.40589 11.9137C5.25173 12.6988 8.45411 12.1213 10.5901 9.9964C12.2691 8.32891 12.859 6.02881 12.859 3.72547C12.859 3.63788 12.966 3.58597 13.0276 3.54055C13.4523 3.20929 13.8268 2.81808 14.1393 2.37915C14.1934 2.31372 14.2212 2.23041 14.2171 2.14557C14.2171 2.09691 14.2171 2.10664 14.1555 2.13259Z" fill="#1D3068"/>
</svg>
