<svg width="17" height="11" viewBox="0 0 17 11" fill="none" xmlns="http://www.w3.org/2000/svg">
<path id="Vector" d="M16.204 1.74619C16.0251 1.07533 15.4974 0.547585 14.8265 0.365706C13.616 0.0407104 8.75 0.0407104 8.75 0.0407104C8.75 0.0407104 3.88701 0.0407104 2.67051 0.365706C1.99965 0.544603 1.47191 1.07235 1.29301 1.74619C0.968018 2.96269 0.968018 5.50004 0.968018 5.50004C0.968018 5.50004 0.968018 8.04038 1.29301 9.25389C1.47191 9.92476 1.99965 10.4525 2.67051 10.6344C3.88701 10.9594 8.75 10.9594 8.75 10.9594C8.75 10.9594 13.616 10.9594 14.8295 10.6344C15.4974 10.4555 16.0251 9.92774 16.207 9.25389C16.532 8.0374 16.532 5.50004 16.532 5.50004C16.532 5.50004 16.532 2.95971 16.207 1.74619H16.204ZM7.1936 7.84061V3.15948L11.2367 5.50004L7.1936 7.84061Z" fill="#1D3068"/>
</svg>
